<svg width="32" height="32" viewBox="0 0 32 32" fill="none" xmlns="http://www.w3.org/2000/svg">
  <defs>
    <linearGradient id="g" x1="0" y1="0" x2="32" y2="32" gradientUnits="userSpaceOnUse">
      <stop offset="0%" stop-color="#6366F1"/>
      <stop offset="100%" stop-color="#4338CA"/>
    </linearGradient>
  </defs>
  <rect width="32" height="32" rx="8" fill="url(#g)"/>
  <path
    fill-rule="evenodd"
    clip-rule="evenodd"
    d="M7 4H25C27.2 4 29 5.8 29 8V19C29 21.2 27.2 23 25 23H11L5 29L7.5 23H7C4.8 23 3 21.2 3 19V8C3 5.8 4.8 4 7 4ZM16 8L17.06 11.94L21 13L17.06 14.06L16 18L14.94 14.06L11 13L14.94 11.94Z"
    fill="white"
  />
</svg>
